<svg xmlns="http://www.w3.org/2000/svg" width="1440" height="560" viewBox="0 0 1440 560" role="img" aria-labelledby="title desc">
  <title id="title">SnapScreen</title>
  <desc id="desc">A polished touch experience for Snapmaker U1</desc>
  <defs>
    <linearGradient id="background" x1="0" y1="0" x2="1" y2="1"><stop offset="0" stop-color="#090b0e"/><stop offset="0.56" stop-color="#121820"/><stop offset="1" stop-color="#071216"/></linearGradient>
    <linearGradient id="accent" x1="0" y1="0" x2="1" y2="0"><stop offset="0" stop-color="#ff6b21"/><stop offset="1" stop-color="#ff944d"/></linearGradient>
    <linearGradient id="cool" x1="0" y1="0" x2="1" y2="1"><stop offset="0" stop-color="#35d4e8"/><stop offset="1" stop-color="#1594aa"/></linearGradient>
    <filter id="blur" x="-100%" y="-100%" width="300%" height="300%"><feGaussianBlur stdDeviation="70"/></filter>
    <filter id="shadow" x="-20%" y="-20%" width="140%" height="160%"><feDropShadow dx="0" dy="16" stdDeviation="18" flood-color="#000" flood-opacity="0.45"/></filter>
  </defs>
  <rect width="1440" height="560" rx="30" fill="url(#background)"/>
  <circle cx="132" cy="74" r="150" fill="#ff6b21" opacity="0.17" filter="url(#blur)"/>
  <circle cx="1270" cy="445" r="180" fill="#22cce2" opacity="0.16" filter="url(#blur)"/>
  <g transform="translate(92 106)">
    <text x="0" y="72" fill="#f7f9fb" font-family="Inter,Segoe UI,Arial,sans-serif" font-size="78" font-weight="760" letter-spacing="-3">Snap<tspan fill="#ff742b">Screen</tspan></text>
    <text x="3" y="132" fill="#aeb8c3" font-family="Inter,Segoe UI,Arial,sans-serif" font-size="26" font-weight="450">16-color printing for Snapmaker U1</text>
    <g transform="translate(3 188)">
      <rect width="198" height="46" rx="23" fill="#ff742b"/><text x="99" y="30" fill="#101216" text-anchor="middle" font-family="Inter,Segoe UI,Arial,sans-serif" font-size="16" font-weight="700">16-COLOR PRINTING</text>
      <rect x="210" width="140" height="46" rx="23" fill="#1c252d" stroke="#34414c"/><text x="280" y="30" fill="#dce4ea" text-anchor="middle" font-family="Inter,Segoe UI,Arial,sans-serif" font-size="16" font-weight="650">TOUCH CONTROL</text>
      <rect x="362" width="112" height="46" rx="23" fill="#1c252d" stroke="#34414c"/><text x="418" y="30" fill="#dce4ea" text-anchor="middle" font-family="Inter,Segoe UI,Arial,sans-serif" font-size="16" font-weight="650">LIVE VIEW</text>
    </g>
    <text x="3" y="304" fill="#697784" font-family="Inter,Segoe UI,Arial,sans-serif" font-size="18">Four colors per toolhead. One seamless experience.</text>
  </g>
  <g transform="translate(790 72)" filter="url(#shadow)">
    <rect width="540" height="416" rx="25" fill="#0b0e12" stroke="#3c4751" stroke-width="2"/>
    <rect x="19" y="19" width="502" height="48" rx="11" fill="#171c22"/><circle cx="45" cy="43" r="8" fill="#ff742b"/><text x="65" y="49" fill="#f1f4f6" font-family="Inter,Segoe UI,Arial,sans-serif" font-size="18" font-weight="700">MULTI-MATERIAL</text><text x="493" y="49" fill="#35d4e8" text-anchor="end" font-family="Inter,Segoe UI,Arial,sans-serif" font-size="16" font-weight="700">16 COLORS</text>
    <rect x="19" y="84" width="180" height="211" rx="14" fill="#14191f" stroke="#27313a"/>
    <text x="109" y="204" fill="#ff742b" text-anchor="middle" font-family="Inter,Segoe UI,Arial,sans-serif" font-size="112" font-weight="800" letter-spacing="-7">16</text>
    <text x="109" y="244" fill="#f3f6f8" text-anchor="middle" font-family="Inter,Segoe UI,Arial,sans-serif" font-size="24" font-weight="750" letter-spacing="4">COLORS</text>
    <text x="109" y="273" fill="#81909c" text-anchor="middle" font-family="Inter,Segoe UI,Arial,sans-serif" font-size="14">4 per toolhead</text>
    <rect x="215" y="84" width="306" height="211" rx="14" fill="#14191f" stroke="#27313a"/>
    <g font-family="Inter,Segoe UI,Arial,sans-serif" font-size="15" font-weight="700">
      <text x="237" y="124" fill="#aeb8c2">T1</text><circle cx="290" cy="118" r="13" fill="#ff5c5c"/><circle cx="330" cy="118" r="13" fill="#ffb020"/><circle cx="370" cy="118" r="13" fill="#f5e663"/><circle cx="410" cy="118" r="13" fill="#f7f7f2"/><path d="M448 118h42" stroke="#ff742b" stroke-width="7" stroke-linecap="round"/>
      <text x="237" y="169" fill="#aeb8c2">T2</text><circle cx="290" cy="163" r="13" fill="#39d98a"/><circle cx="330" cy="163" r="13" fill="#23c9d8"/><circle cx="370" cy="163" r="13" fill="#4195ff"/><circle cx="410" cy="163" r="13" fill="#8c6bff"/><path d="M448 163h42" stroke="#35d4e8" stroke-width="7" stroke-linecap="round"/>
      <text x="237" y="214" fill="#aeb8c2">T3</text><circle cx="290" cy="208" r="13" fill="#ff65c3"/><circle cx="330" cy="208" r="13" fill="#be5cff"/><circle cx="370" cy="208" r="13" fill="#795548"/><circle cx="410" cy="208" r="13" fill="#9ea7ae"/><path d="M448 208h42" stroke="#c884ff" stroke-width="7" stroke-linecap="round"/>
      <text x="237" y="259" fill="#aeb8c2">T4</text><circle cx="290" cy="253" r="13" fill="#ff7f32"/><circle cx="330" cy="253" r="13" fill="#b8e65c"/><circle cx="370" cy="253" r="13" fill="#65d1ff"/><circle cx="410" cy="253" r="13" fill="#30343a" stroke="#7d8790"/><path d="M448 253h42" stroke="#93d765" stroke-width="7" stroke-linecap="round"/>
    </g>
    <g transform="translate(19 312)"><rect width="502" height="85" rx="14" fill="#14191f" stroke="#27313a"/><text x="25" y="35" fill="#f2f5f7" font-family="Inter,Segoe UI,Arial,sans-serif" font-size="17" font-weight="700">4 TOOLHEADS × 4 COLORS</text><text x="25" y="61" fill="#7f8d98" font-family="Inter,Segoe UI,Arial,sans-serif" font-size="14">More color. More freedom. One touchscreen.</text><circle cx="404" cy="43" r="18" fill="#ff742b"/><circle cx="438" cy="43" r="18" fill="#35d4e8"/><circle cx="472" cy="43" r="18" fill="#c884ff"/></g>
  </g>
  <rect x="0.75" y="0.75" width="1438.5" height="558.5" rx="29.25" fill="none" stroke="#263039" stroke-width="1.5"/>
</svg>
